# xmcd
#
# Track frame offsets:
#	150
#	11982
#	23177
#	34175
#	47536
#	55220
#	62611
#	76068
#	84463
#	97030
#
# Disc length: 1395 seconds
#
# Revision: 0
# Processed by: cddbd v1.5.2PL0 Copyright (c) Steve Scherf et al.
# Submitted via: audiograbber 1.83.01
#
DISCID=7505710a
DTITLE=Tom Jones - Tom Sings The Beatles
DYEAR=2007
DGENRE=Oldies
TTITLE0=We Can Work It Out
TTITLE1=The Long Way And Winding Road
TTITLE2=Got To Get You Into My Life
TTITLE3=Yesterday
TTITLE4=Twist and Shout
TTITLE5=Can't Buy Me Love
TTITLE6=Let It Be
TTITLE7=(Just Like) Starting Over
TTITLE8=Lady Madonna
TTITLE9=Roll Over Beethoven
EXTD=
EXTT0=
EXTT1=
EXTT2=
EXTT3=
EXTT4=
EXTT5=
EXTT6=
EXTT7=
EXTT8=
EXTT9=
PLAYORDER=
